<svg xmlns="http://www.w3.org/2000/svg" viewBox="0 0 80 80" fill="none" role="img" aria-labelledby="aiTitle">
  <title id="aiTitle">مساعد ركن العطاء</title>
  <defs>
    <linearGradient id="aiBody" x1="10" y1="8" x2="70" y2="72" gradientUnits="userSpaceOnUse">
      <stop stop-color="#0E5C57"/>
      <stop offset=".55" stop-color="#1A9B8E"/>
      <stop offset="1" stop-color="#157A72"/>
    </linearGradient>
    <linearGradient id="aiGlow" x1="40" y1="12" x2="40" y2="68" gradientUnits="userSpaceOnUse">
      <stop stop-color="#FFFFFF" stop-opacity=".28"/>
      <stop offset="1" stop-color="#FFFFFF" stop-opacity="0"/>
    </linearGradient>
    <filter id="soft" x="-20%" y="-20%" width="140%" height="140%">
      <feDropShadow dx="0" dy="4" stdDeviation="3" flood-color="#0E5C57" flood-opacity=".35"/>
    </filter>
  </defs>
  <circle cx="40" cy="40" r="36" fill="url(#aiBody)" filter="url(#soft)"/>
  <circle cx="40" cy="40" r="36" fill="url(#aiGlow)"/>
  <path d="M26 32c0-8.3 6.3-15 14-15s14 6.7 14 15c0 6.4-3.7 11.9-9 14.1V54c0 1.7-1.3 3-3 3h-4c-1.7 0-3-1.3-3-3v-7.9c-5.3-2.2-9-7.7-9-14.1Z" fill="#fff"/>
  <circle cx="34.5" cy="32" r="2.4" fill="#0E5C57"/>
  <circle cx="45.5" cy="32" r="2.4" fill="#0E5C57"/>
  <path d="M35 39.2c1.4 1.6 8.6 1.6 10 0" stroke="#0E5C57" stroke-width="1.8" stroke-linecap="round"/>
  <circle cx="58" cy="22" r="5.2" fill="#C4A35A"/>
  <path d="M58 19.4v5.2M55.4 22h5.2" stroke="#fff" stroke-width="1.5" stroke-linecap="round"/>
  <path d="M22 50h8l-3 6 11-8" fill="#F59E0B"/>
</svg>
